solid zone0
 facet normal 0.99863 0.0523365 0
  outer loop
   vertex 0.06 0.04 0.04
   vertex 0.06 0.04 -0.04
   vertex 0.0599343 0.0412543 0.04
  endloop
 endfacet
 facet normal 0.99863 0.0523365 -0
  outer loop
   vertex 0.0599343 0.0412543 -0.04
   vertex 0.0599343 0.0412543 0.04
   vertex 0.06 0.04 -0.04
  endloop
 endfacet
 facet normal 0.987688 0.156435 0
  outer loop
   vertex 0.0599343 0.0412543 0.04
   vertex 0.0599343 0.0412543 -0.04
   vertex 0.0597378 0.0424949 0.04
  endloop
 endfacet
 facet normal 0.987688 0.156435 -0
  outer loop
   vertex 0.0597378 0.0424949 -0.04
   vertex 0.0597378 0.0424949 0.04
   vertex 0.0599343 0.0412543 -0.04
  endloop
 endfacet
 facet normal 0.965925 0.258821 0
  outer loop
   vertex 0.0597378 0.0424949 0.04
   vertex 0.0597378 0.0424949 -0.04
   vertex 0.0594127 0.0437082 0.04
  endloop
 endfacet
 facet normal 0.965925 0.258821 -0
  outer loop
   vertex 0.0594127 0.0437082 -0.04
   vertex 0.0594127 0.0437082 0.04
   vertex 0.0597378 0.0424949 -0.04
  endloop
 endfacet
 facet normal 0.933582 0.358365 0
  outer loop
   vertex 0.0594127 0.0437082 0.04
   vertex 0.0594127 0.0437082 -0.04
   vertex 0.0589625 0.0448808 0.04
  endloop
 endfacet
 facet normal 0.933582 0.358365 0
  outer loop
   vertex 0.0589625 0.0448808 0.04
   vertex 0.0594127 0.0437082 -0.04
   vertex 0.0589625 0.0448808 -0.04
  endloop
 endfacet
 facet normal 0.891006 0.453992 0
  outer loop
   vertex 0.0589625 0.0448808 0.04
   vertex 0.0589625 0.0448808 -0.04
   vertex 0.0583923 0.046 0.04
  endloop
 endfacet
 facet normal 0.891006 0.453992 -0
  outer loop
   vertex 0.0583923 0.046 -0.04
   vertex 0.0583923 0.046 0.04
   vertex 0.0589625 0.0448808 -0.04
  endloop
 endfacet
 facet normal 0.838671 0.544639 0
  outer loop
   vertex 0.0583923 0.046 0.04
   vertex 0.0583923 0.046 -0.04
   vertex 0.0577082 0.0470534 0.04
  endloop
 endfacet
 facet normal 0.838671 0.544639 -0
  outer loop
   vertex 0.0577082 0.0470534 -0.04
   vertex 0.0577082 0.0470534 0.04
   vertex 0.0583923 0.046 -0.04
  endloop
 endfacet
 facet normal 0.777147 0.629319 0
  outer loop
   vertex 0.0577082 0.0470534 0.04
   vertex 0.0577082 0.0470534 -0.04
   vertex 0.0569177 0.0480296 0.04
  endloop
 endfacet
 facet normal 0.777147 0.629319 -0
  outer loop
   vertex 0.0569177 0.0480296 -0.04
   vertex 0.0569177 0.0480296 0.04
   vertex 0.0577082 0.0470534 -0.04
  endloop
 endfacet
 facet normal 0.707107 0.707107 0
  outer loop
   vertex 0.0569177 0.0480296 0.04
   vertex 0.0569177 0.0480296 -0.04
   vertex 0.0560296 0.0489177 0.04
  endloop
 endfacet
 facet normal 0.707107 0.707107 0
  outer loop
   vertex 0.0560296 0.0489177 0.04
   vertex 0.0569177 0.0480296 -0.04
   vertex 0.0560296 0.0489177 -0.04
  endloop
 endfacet
 facet normal 0.629321 0.777146 0
  outer loop
   vertex 0.0560296 0.0489177 0.04
   vertex 0.0560296 0.0489177 -0.04
   vertex 0.0550534 0.0497082 0.04
  endloop
 endfacet
 facet normal 0.629321 0.777146 -0
  outer loop
   vertex 0.0550534 0.0497082 -0.04
   vertex 0.0550534 0.0497082 0.04
   vertex 0.0560296 0.0489177 -0.04
  endloop
 endfacet
 facet normal 0.544639 0.838671 0
  outer loop
   vertex 0.0550534 0.0497082 0.04
   vertex 0.0550534 0.0497082 -0.04
   vertex 0.054 0.0503923 0.04
  endloop
 endfacet
 facet normal 0.544639 0.838671 -0
  outer loop
   vertex 0.054 0.0503923 -0.04
   vertex 0.054 0.0503923 0.04
   vertex 0.0550534 0.0497082 -0.04
  endloop
 endfacet
 facet normal 0.453988 0.891008 0
  outer loop
   vertex 0.054 0.0503923 0.04
   vertex 0.054 0.0503923 -0.04
   vertex 0.0528808 0.0509625 0.04
  endloop
 endfacet
 facet normal 0.453988 0.891008 -0
  outer loop
   vertex 0.0528808 0.0509625 -0.04
   vertex 0.0528808 0.0509625 0.04
   vertex 0.054 0.0503923 -0.04
  endloop
 endfacet
 facet normal 0.358368 0.93358 0
  outer loop
   vertex 0.0528808 0.0509625 0.04
   vertex 0.0528808 0.0509625 -0.04
   vertex 0.0517082 0.0514127 0.04
  endloop
 endfacet
 facet normal 0.358368 0.93358 -0
  outer loop
   vertex 0.0517082 0.0514127 -0.04
   vertex 0.0517082 0.0514127 0.04
   vertex 0.0528808 0.0509625 -0.04
  endloop
 endfacet
 facet normal 0.258821 0.965925 0
  outer loop
   vertex 0.0517082 0.0514127 0.04
   vertex 0.0517082 0.0514127 -0.04
   vertex 0.0504949 0.0517378 0.04
  endloop
 endfacet
 facet normal 0.258821 0.965925 -0
  outer loop
   vertex 0.0504949 0.0517378 -0.04
   vertex 0.0504949 0.0517378 0.04
   vertex 0.0517082 0.0514127 -0.04
  endloop
 endfacet
 facet normal 0.156431 0.987689 0
  outer loop
   vertex 0.0504949 0.0517378 0.04
   vertex 0.0504949 0.0517378 -0.04
   vertex 0.0492543 0.0519343 0.04
  endloop
 endfacet
 facet normal 0.156431 0.987689 0
  outer loop
   vertex 0.0492543 0.0519343 0.04
   vertex 0.0504949 0.0517378 -0.04
   vertex 0.0492543 0.0519343 -0.04
  endloop
 endfacet
 facet normal 0.0523364 0.99863 0
  outer loop
   vertex 0.0492543 0.0519343 0.04
   vertex 0.0492543 0.0519343 -0.04
   vertex 0.048 0.052 0.04
  endloop
 endfacet
 facet normal 0.0523364 0.99863 -0
  outer loop
   vertex 0.048 0.052 -0.04
   vertex 0.048 0.052 0.04
   vertex 0.0492543 0.0519343 -0.04
  endloop
 endfacet
 facet normal -0.0523365 0.99863 0
  outer loop
   vertex 0.048 0.052 0.04
   vertex 0.048 0.052 -0.04
   vertex 0.0467457 0.0519343 0.04
  endloop
 endfacet
 facet normal -0.0523365 0.99863 0
  outer loop
   vertex 0.0467457 0.0519343 -0.04
   vertex 0.0467457 0.0519343 0.04
   vertex 0.048 0.052 -0.04
  endloop
 endfacet
 facet normal -0.156431 0.987689 0
  outer loop
   vertex 0.0467457 0.0519343 0.04
   vertex 0.0467457 0.0519343 -0.04
   vertex 0.0455051 0.0517378 0.04
  endloop
 endfacet
 facet normal -0.156431 0.987689 0
  outer loop
   vertex 0.0455051 0.0517378 -0.04
   vertex 0.0455051 0.0517378 0.04
   vertex 0.0467457 0.0519343 -0.04
  endloop
 endfacet
 facet normal -0.258821 0.965925 0
  outer loop
   vertex 0.0455051 0.0517378 0.04
   vertex 0.0455051 0.0517378 -0.04
   vertex 0.0442918 0.0514127 0.04
  endloop
 endfacet
 facet normal -0.258821 0.965925 0
  outer loop
   vertex 0.0442918 0.0514127 -0.04
   vertex 0.0442918 0.0514127 0.04
   vertex 0.0455051 0.0517378 -0.04
  endloop
 endfacet
 facet normal -0.358368 0.93358 0
  outer loop
   vertex 0.0442918 0.0514127 0.04
   vertex 0.0442918 0.0514127 -0.04
   vertex 0.0431192 0.0509625 0.04
  endloop
 endfacet
 facet normal -0.358368 0.93358 0
  outer loop
   vertex 0.0431192 0.0509625 -0.04
   vertex 0.0431192 0.0509625 0.04
   vertex 0.0442918 0.0514127 -0.04
  endloop
 endfacet
 facet normal -0.453988 0.891008 0
  outer loop
   vertex 0.0431192 0.0509625 0.04
   vertex 0.0431192 0.0509625 -0.04
   vertex 0.042 0.0503923 0.04
  endloop
 endfacet
 facet normal -0.453988 0.891008 0
  outer loop
   vertex 0.042 0.0503923 -0.04
   vertex 0.042 0.0503923 0.04
   vertex 0.0431192 0.0509625 -0.04
  endloop
 endfacet
 facet normal -0.544639 0.838671 0
  outer loop
   vertex 0.042 0.0503923 0.04
   vertex 0.042 0.0503923 -0.04
   vertex 0.0409466 0.0497082 0.04
  endloop
 endfacet
 facet normal -0.544639 0.838671 0
  outer loop
   vertex 0.0409466 0.0497082 -0.04
   vertex 0.0409466 0.0497082 0.04
   vertex 0.042 0.0503923 -0.04
  endloop
 endfacet
 facet normal -0.629322 0.777145 0
  outer loop
   vertex 0.0409466 0.0497082 0.04
   vertex 0.0409466 0.0497082 -0.04
   vertex 0.0399704 0.0489177 0.04
  endloop
 endfacet
 facet normal -0.629322 0.777145 0
  outer loop
   vertex 0.0399704 0.0489177 -0.04
   vertex 0.0399704 0.0489177 0.04
   vertex 0.0409466 0.0497082 -0.04
  endloop
 endfacet
 facet normal -0.707106 0.707108 0
  outer loop
   vertex 0.0399704 0.0489177 0.04
   vertex 0.0399704 0.0489177 -0.04
   vertex 0.0390823 0.0480296 0.04
  endloop
 endfacet
 facet normal -0.707106 0.707108 0
  outer loop
   vertex 0.0390823 0.0480296 -0.04
   vertex 0.0390823 0.0480296 0.04
   vertex 0.0399704 0.0489177 -0.04
  endloop
 endfacet
 facet normal -0.777147 0.629319 0
  outer loop
   vertex 0.0390823 0.0480296 0.04
   vertex 0.0390823 0.0480296 -0.04
   vertex 0.0382918 0.0470534 0.04
  endloop
 endfacet
 facet normal -0.777147 0.629319 0
  outer loop
   vertex 0.0382918 0.0470534 -0.04
   vertex 0.0382918 0.0470534 0.04
   vertex 0.0390823 0.0480296 -0.04
  endloop
 endfacet
 facet normal -0.83867 0.544641 0
  outer loop
   vertex 0.0382918 0.0470534 0.04
   vertex 0.0382918 0.0470534 -0.04
   vertex 0.0376077 0.046 0.04
  endloop
 endfacet
 facet normal -0.83867 0.544641 0
  outer loop
   vertex 0.0376077 0.046 -0.04
   vertex 0.0376077 0.046 0.04
   vertex 0.0382918 0.0470534 -0.04
  endloop
 endfacet
 facet normal -0.891007 0.45399 0
  outer loop
   vertex 0.0376077 0.046 0.04
   vertex 0.0376077 0.046 -0.04
   vertex 0.0370375 0.0448808 0.04
  endloop
 endfacet
 facet normal -0.891007 0.45399 0
  outer loop
   vertex 0.0370375 0.0448808 -0.04
   vertex 0.0370375 0.0448808 0.04
   vertex 0.0376077 0.046 -0.04
  endloop
 endfacet
 facet normal -0.933581 0.358367 0
  outer loop
   vertex 0.0370375 0.0448808 0.04
   vertex 0.0370375 0.0448808 -0.04
   vertex 0.0365873 0.0437082 0.04
  endloop
 endfacet
 facet normal -0.933581 0.358367 0
  outer loop
   vertex 0.0365873 0.0437082 -0.04
   vertex 0.0365873 0.0437082 0.04
   vertex 0.0370375 0.0448808 -0.04
  endloop
 endfacet
 facet normal -0.965926 0.258819 0
  outer loop
   vertex 0.0365873 0.0437082 0.04
   vertex 0.0365873 0.0437082 -0.04
   vertex 0.0362622 0.0424949 0.04
  endloop
 endfacet
 facet normal -0.965926 0.258819 0
  outer loop
   vertex 0.0362622 0.0424949 -0.04
   vertex 0.0362622 0.0424949 0.04
   vertex 0.0365873 0.0437082 -0.04
  endloop
 endfacet
 facet normal -0.987688 0.156435 0
  outer loop
   vertex 0.0362622 0.0424949 0.04
   vertex 0.0362622 0.0424949 -0.04
   vertex 0.0360657 0.0412543 0.04
  endloop
 endfacet
 facet normal -0.987688 0.156435 0
  outer loop
   vertex 0.0360657 0.0412543 -0.04
   vertex 0.0360657 0.0412543 0.04
   vertex 0.0362622 0.0424949 -0.04
  endloop
 endfacet
 facet normal -0.99863 0.0523342 0
  outer loop
   vertex 0.0360657 0.0412543 0.04
   vertex 0.0360657 0.0412543 -0.04
   vertex 0.036 0.04 0.04
  endloop
 endfacet
 facet normal -0.99863 0.0523342 0
  outer loop
   vertex 0.036 0.04 -0.04
   vertex 0.036 0.04 0.04
   vertex 0.0360657 0.0412543 -0.04
  endloop
 endfacet
 facet normal -0.99863 -0.0523342 -0
  outer loop
   vertex 0.036 0.04 0.04
   vertex 0.036 0.04 -0.04
   vertex 0.0360657 0.0387457 0.04
  endloop
 endfacet
 facet normal -0.99863 -0.0523342 0
  outer loop
   vertex 0.0360657 0.0387457 -0.04
   vertex 0.0360657 0.0387457 0.04
   vertex 0.036 0.04 -0.04
  endloop
 endfacet
 facet normal -0.987688 -0.156435 -0
  outer loop
   vertex 0.0360657 0.0387457 0.04
   vertex 0.0360657 0.0387457 -0.04
   vertex 0.0362622 0.0375051 0.04
  endloop
 endfacet
 facet normal -0.987688 -0.156435 0
  outer loop
   vertex 0.0362622 0.0375051 -0.04
   vertex 0.0362622 0.0375051 0.04
   vertex 0.0360657 0.0387457 -0.04
  endloop
 endfacet
 facet normal -0.965926 -0.258819 -0
  outer loop
   vertex 0.0362622 0.0375051 0.04
   vertex 0.0362622 0.0375051 -0.04
   vertex 0.0365873 0.0362918 0.04
  endloop
 endfacet
 facet normal -0.965926 -0.258819 0
  outer loop
   vertex 0.0365873 0.0362918 -0.04
   vertex 0.0365873 0.0362918 0.04
   vertex 0.0362622 0.0375051 -0.04
  endloop
 endfacet
 facet normal -0.933581 -0.358367 -0
  outer loop
   vertex 0.0365873 0.0362918 0.04
   vertex 0.0365873 0.0362918 -0.04
   vertex 0.0370375 0.0351192 0.04
  endloop
 endfacet
 facet normal -0.933581 -0.358367 0
  outer loop
   vertex 0.0370375 0.0351192 -0.04
   vertex 0.0370375 0.0351192 0.04
   vertex 0.0365873 0.0362918 -0.04
  endloop
 endfacet
 facet normal -0.891007 -0.45399 -0
  outer loop
   vertex 0.0370375 0.0351192 0.04
   vertex 0.0370375 0.0351192 -0.04
   vertex 0.0376077 0.034 0.04
  endloop
 endfacet
 facet normal -0.891007 -0.45399 0
  outer loop
   vertex 0.0376077 0.034 -0.04
   vertex 0.0376077 0.034 0.04
   vertex 0.0370375 0.0351192 -0.04
  endloop
 endfacet
 facet normal -0.83867 -0.544641 -0
  outer loop
   vertex 0.0376077 0.034 0.04
   vertex 0.0376077 0.034 -0.04
   vertex 0.0382918 0.0329466 0.04
  endloop
 endfacet
 facet normal -0.83867 -0.544641 0
  outer loop
   vertex 0.0382918 0.0329466 -0.04
   vertex 0.0382918 0.0329466 0.04
   vertex 0.0376077 0.034 -0.04
  endloop
 endfacet
 facet normal -0.777147 -0.629319 -0
  outer loop
   vertex 0.0382918 0.0329466 0.04
   vertex 0.0382918 0.0329466 -0.04
   vertex 0.0390823 0.0319704 0.04
  endloop
 endfacet
 facet normal -0.777147 -0.629319 0
  outer loop
   vertex 0.0390823 0.0319704 -0.04
   vertex 0.0390823 0.0319704 0.04
   vertex 0.0382918 0.0329466 -0.04
  endloop
 endfacet
 facet normal -0.707106 -0.707108 -0
  outer loop
   vertex 0.0390823 0.0319704 0.04
   vertex 0.0390823 0.0319704 -0.04
   vertex 0.0399704 0.0310823 0.04
  endloop
 endfacet
 facet normal -0.707106 -0.707108 0
  outer loop
   vertex 0.0399704 0.0310823 -0.04
   vertex 0.0399704 0.0310823 0.04
   vertex 0.0390823 0.0319704 -0.04
  endloop
 endfacet
 facet normal -0.629322 -0.777145 -0
  outer loop
   vertex 0.0399704 0.0310823 0.04
   vertex 0.0399704 0.0310823 -0.04
   vertex 0.0409466 0.0302918 0.04
  endloop
 endfacet
 facet normal -0.629322 -0.777145 0
  outer loop
   vertex 0.0409466 0.0302918 -0.04
   vertex 0.0409466 0.0302918 0.04
   vertex 0.0399704 0.0310823 -0.04
  endloop
 endfacet
 facet normal -0.544639 -0.838671 -0
  outer loop
   vertex 0.0409466 0.0302918 0.04
   vertex 0.0409466 0.0302918 -0.04
   vertex 0.042 0.0296077 0.04
  endloop
 endfacet
 facet normal -0.544639 -0.838671 0
  outer loop
   vertex 0.042 0.0296077 -0.04
   vertex 0.042 0.0296077 0.04
   vertex 0.0409466 0.0302918 -0.04
  endloop
 endfacet
 facet normal -0.45399 -0.891007 -0
  outer loop
   vertex 0.042 0.0296077 0.04
   vertex 0.042 0.0296077 -0.04
   vertex 0.0431192 0.0290375 0.04
  endloop
 endfacet
 facet normal -0.45399 -0.891007 0
  outer loop
   vertex 0.0431192 0.0290375 -0.04
   vertex 0.0431192 0.0290375 0.04
   vertex 0.042 0.0296077 -0.04
  endloop
 endfacet
 facet normal -0.358366 -0.933581 -0
  outer loop
   vertex 0.0431192 0.0290375 0.04
   vertex 0.0431192 0.0290375 -0.04
   vertex 0.0442918 0.0285873 0.04
  endloop
 endfacet
 facet normal -0.358366 -0.933581 0
  outer loop
   vertex 0.0442918 0.0285873 -0.04
   vertex 0.0442918 0.0285873 0.04
   vertex 0.0431192 0.0290375 -0.04
  endloop
 endfacet
 facet normal -0.258821 -0.965925 -0
  outer loop
   vertex 0.0442918 0.0285873 0.04
   vertex 0.0442918 0.0285873 -0.04
   vertex 0.0455051 0.0282622 0.04
  endloop
 endfacet
 facet normal -0.258821 -0.965925 0
  outer loop
   vertex 0.0455051 0.0282622 -0.04
   vertex 0.0455051 0.0282622 0.04
   vertex 0.0442918 0.0285873 -0.04
  endloop
 endfacet
 facet normal -0.156433 -0.987689 -0
  outer loop
   vertex 0.0455051 0.0282622 0.04
   vertex 0.0455051 0.0282622 -0.04
   vertex 0.0467457 0.0280657 0.04
  endloop
 endfacet
 facet normal -0.156433 -0.987689 0
  outer loop
   vertex 0.0467457 0.0280657 -0.04
   vertex 0.0467457 0.0280657 0.04
   vertex 0.0455051 0.0282622 -0.04
  endloop
 endfacet
 facet normal -0.0523365 -0.99863 -0
  outer loop
   vertex 0.0467457 0.0280657 0.04
   vertex 0.0467457 0.0280657 -0.04
   vertex 0.048 0.028 0.04
  endloop
 endfacet
 facet normal -0.0523365 -0.99863 0
  outer loop
   vertex 0.048 0.028 -0.04
   vertex 0.048 0.028 0.04
   vertex 0.0467457 0.0280657 -0.04
  endloop
 endfacet
 facet normal 0.0523364 -0.99863 0
  outer loop
   vertex 0.048 0.028 0.04
   vertex 0.048 0.028 -0.04
   vertex 0.0492543 0.0280657 0.04
  endloop
 endfacet
 facet normal 0.0523364 -0.99863 0
  outer loop
   vertex 0.0492543 0.0280657 -0.04
   vertex 0.0492543 0.0280657 0.04
   vertex 0.048 0.028 -0.04
  endloop
 endfacet
 facet normal 0.156433 -0.987689 0
  outer loop
   vertex 0.0492543 0.0280657 0.04
   vertex 0.0492543 0.0280657 -0.04
   vertex 0.0504949 0.0282622 0.04
  endloop
 endfacet
 facet normal 0.156433 -0.987689 0
  outer loop
   vertex 0.0504949 0.0282622 0.04
   vertex 0.0492543 0.0280657 -0.04
   vertex 0.0504949 0.0282622 -0.04
  endloop
 endfacet
 facet normal 0.258821 -0.965925 0
  outer loop
   vertex 0.0504949 0.0282622 0.04
   vertex 0.0504949 0.0282622 -0.04
   vertex 0.0517082 0.0285873 0.04
  endloop
 endfacet
 facet normal 0.258821 -0.965925 0
  outer loop
   vertex 0.0517082 0.0285873 -0.04
   vertex 0.0517082 0.0285873 0.04
   vertex 0.0504949 0.0282622 -0.04
  endloop
 endfacet
 facet normal 0.358366 -0.933581 0
  outer loop
   vertex 0.0517082 0.0285873 0.04
   vertex 0.0517082 0.0285873 -0.04
   vertex 0.0528808 0.0290375 0.04
  endloop
 endfacet
 facet normal 0.358366 -0.933581 0
  outer loop
   vertex 0.0528808 0.0290375 -0.04
   vertex 0.0528808 0.0290375 0.04
   vertex 0.0517082 0.0285873 -0.04
  endloop
 endfacet
 facet normal 0.45399 -0.891007 0
  outer loop
   vertex 0.0528808 0.0290375 0.04
   vertex 0.0528808 0.0290375 -0.04
   vertex 0.054 0.0296077 0.04
  endloop
 endfacet
 facet normal 0.45399 -0.891007 0
  outer loop
   vertex 0.054 0.0296077 -0.04
   vertex 0.054 0.0296077 0.04
   vertex 0.0528808 0.0290375 -0.04
  endloop
 endfacet
 facet normal 0.544639 -0.838671 0
  outer loop
   vertex 0.054 0.0296077 0.04
   vertex 0.054 0.0296077 -0.04
   vertex 0.0550534 0.0302918 0.04
  endloop
 endfacet
 facet normal 0.544639 -0.838671 0
  outer loop
   vertex 0.0550534 0.0302918 -0.04
   vertex 0.0550534 0.0302918 0.04
   vertex 0.054 0.0296077 -0.04
  endloop
 endfacet
 facet normal 0.629321 -0.777146 0
  outer loop
   vertex 0.0550534 0.0302918 0.04
   vertex 0.0550534 0.0302918 -0.04
   vertex 0.0560296 0.0310823 0.04
  endloop
 endfacet
 facet normal 0.629321 -0.777146 0
  outer loop
   vertex 0.0560296 0.0310823 -0.04
   vertex 0.0560296 0.0310823 0.04
   vertex 0.0550534 0.0302918 -0.04
  endloop
 endfacet
 facet normal 0.707107 -0.707107 0
  outer loop
   vertex 0.0560296 0.0310823 0.04
   vertex 0.0560296 0.0310823 -0.04
   vertex 0.0569177 0.0319704 0.04
  endloop
 endfacet
 facet normal 0.707107 -0.707107 0
  outer loop
   vertex 0.0569177 0.0319704 0.04
   vertex 0.0560296 0.0310823 -0.04
   vertex 0.0569177 0.0319704 -0.04
  endloop
 endfacet
 facet normal 0.777147 -0.629319 0
  outer loop
   vertex 0.0569177 0.0319704 0.04
   vertex 0.0569177 0.0319704 -0.04
   vertex 0.0577082 0.0329466 0.04
  endloop
 endfacet
 facet normal 0.777147 -0.629319 0
  outer loop
   vertex 0.0577082 0.0329466 -0.04
   vertex 0.0577082 0.0329466 0.04
   vertex 0.0569177 0.0319704 -0.04
  endloop
 endfacet
 facet normal 0.838671 -0.544639 0
  outer loop
   vertex 0.0577082 0.0329466 0.04
   vertex 0.0577082 0.0329466 -0.04
   vertex 0.0583923 0.034 0.04
  endloop
 endfacet
 facet normal 0.838671 -0.544639 0
  outer loop
   vertex 0.0583923 0.034 -0.04
   vertex 0.0583923 0.034 0.04
   vertex 0.0577082 0.0329466 -0.04
  endloop
 endfacet
 facet normal 0.891006 -0.453992 0
  outer loop
   vertex 0.0583923 0.034 0.04
   vertex 0.0583923 0.034 -0.04
   vertex 0.0589625 0.0351192 0.04
  endloop
 endfacet
 facet normal 0.891006 -0.453992 0
  outer loop
   vertex 0.0589625 0.0351192 -0.04
   vertex 0.0589625 0.0351192 0.04
   vertex 0.0583923 0.034 -0.04
  endloop
 endfacet
 facet normal 0.933582 -0.358365 0
  outer loop
   vertex 0.0589625 0.0351192 0.04
   vertex 0.0589625 0.0351192 -0.04
   vertex 0.0594127 0.0362918 0.04
  endloop
 endfacet
 facet normal 0.933582 -0.358365 0
  outer loop
   vertex 0.0594127 0.0362918 0.04
   vertex 0.0589625 0.0351192 -0.04
   vertex 0.0594127 0.0362918 -0.04
  endloop
 endfacet
 facet normal 0.965925 -0.258821 0
  outer loop
   vertex 0.0594127 0.0362918 0.04
   vertex 0.0594127 0.0362918 -0.04
   vertex 0.0597378 0.0375051 0.04
  endloop
 endfacet
 facet normal 0.965925 -0.258821 0
  outer loop
   vertex 0.0597378 0.0375051 -0.04
   vertex 0.0597378 0.0375051 0.04
   vertex 0.0594127 0.0362918 -0.04
  endloop
 endfacet
 facet normal 0.987688 -0.156435 0
  outer loop
   vertex 0.0597378 0.0375051 0.04
   vertex 0.0597378 0.0375051 -0.04
   vertex 0.0599343 0.0387457 0.04
  endloop
 endfacet
 facet normal 0.987688 -0.156435 0
  outer loop
   vertex 0.0599343 0.0387457 -0.04
   vertex 0.0599343 0.0387457 0.04
   vertex 0.0597378 0.0375051 -0.04
  endloop
 endfacet
 facet normal 0.99863 -0.0523365 0
  outer loop
   vertex 0.0599343 0.0387457 0.04
   vertex 0.0599343 0.0387457 -0.04
   vertex 0.06 0.04 0.04
  endloop
 endfacet
 facet normal 0.99863 -0.0523365 0
  outer loop
   vertex 0.06 0.04 -0.04
   vertex 0.06 0.04 0.04
   vertex 0.0599343 0.0387457 -0.04
  endloop
 endfacet
 facet normal -0 0 1
  outer loop
   vertex 0.0455051 0.0517378 0.04
   vertex 0.0442918 0.0514127 0.04
   vertex 0.0467457 0.0519343 0.04
  endloop
 endfacet
 facet normal -0 0 1
  outer loop
   vertex 0.0442918 0.0514127 0.04
   vertex 0.0431192 0.0509625 0.04
   vertex 0.0467457 0.0519343 0.04
  endloop
 endfacet
 facet normal -0 0 1
  outer loop
   vertex 0.0467457 0.0519343 0.04
   vertex 0.0431192 0.0509625 0.04
   vertex 0.048 0.052 0.04
  endloop
 endfacet
 facet normal 0 0 1
  outer loop
   vertex 0.048 0.052 0.04
   vertex 0.0431192 0.0509625 0.04
   vertex 0.0492543 0.0519343 0.04
  endloop
 endfacet
 facet normal -0 0 1
  outer loop
   vertex 0.0431192 0.0509625 0.04
   vertex 0.042 0.0503923 0.04
   vertex 0.0492543 0.0519343 0.04
  endloop
 endfacet
 facet normal -0 0 1
  outer loop
   vertex 0.042 0.0503923 0.04
   vertex 0.0409466 0.0497082 0.04
   vertex 0.0492543 0.0519343 0.04
  endloop
 endfacet
 facet normal -0 0 1
  outer loop
   vertex 0.0409466 0.0497082 0.04
   vertex 0.0399704 0.0489177 0.04
   vertex 0.0492543 0.0519343 0.04
  endloop
 endfacet
 facet normal -0 0 1
  outer loop
   vertex 0.0399704 0.0489177 0.04
   vertex 0.0390823 0.0480296 0.04
   vertex 0.0492543 0.0519343 0.04
  endloop
 endfacet
 facet normal -0 0 1
  outer loop
   vertex 0.0390823 0.0480296 0.04
   vertex 0.0382918 0.0470534 0.04
   vertex 0.0492543 0.0519343 0.04
  endloop
 endfacet
 facet normal -0 0 1
  outer loop
   vertex 0.0382918 0.0470534 0.04
   vertex 0.0376077 0.046 0.04
   vertex 0.0492543 0.0519343 0.04
  endloop
 endfacet
 facet normal -0 0 1
  outer loop
   vertex 0.0376077 0.046 0.04
   vertex 0.0370375 0.0448808 0.04
   vertex 0.0492543 0.0519343 0.04
  endloop
 endfacet
 facet normal -0 0 1
  outer loop
   vertex 0.0370375 0.0448808 0.04
   vertex 0.0365873 0.0437082 0.04
   vertex 0.0492543 0.0519343 0.04
  endloop
 endfacet
 facet normal -0 0 1
  outer loop
   vertex 0.0365873 0.0437082 0.04
   vertex 0.0362622 0.0424949 0.04
   vertex 0.0492543 0.0519343 0.04
  endloop
 endfacet
 facet normal -0 0 1
  outer loop
   vertex 0.0362622 0.0424949 0.04
   vertex 0.0360657 0.0412543 0.04
   vertex 0.0492543 0.0519343 0.04
  endloop
 endfacet
 facet normal -0 0 1
  outer loop
   vertex 0.0360657 0.0412543 0.04
   vertex 0.036 0.04 0.04
   vertex 0.0492543 0.0519343 0.04
  endloop
 endfacet
 facet normal -0 0 1
  outer loop
   vertex 0.036 0.04 0.04
   vertex 0.0360657 0.0387457 0.04
   vertex 0.0492543 0.0519343 0.04
  endloop
 endfacet
 facet normal -0 0 1
  outer loop
   vertex 0.0360657 0.0387457 0.04
   vertex 0.0362622 0.0375051 0.04
   vertex 0.0492543 0.0519343 0.04
  endloop
 endfacet
 facet normal -0 0 1
  outer loop
   vertex 0.0362622 0.0375051 0.04
   vertex 0.0365873 0.0362918 0.04
   vertex 0.0492543 0.0519343 0.04
  endloop
 endfacet
 facet normal -0 0 1
  outer loop
   vertex 0.0365873 0.0362918 0.04
   vertex 0.0370375 0.0351192 0.04
   vertex 0.0492543 0.0519343 0.04
  endloop
 endfacet
 facet normal -0 0 1
  outer loop
   vertex 0.0370375 0.0351192 0.04
   vertex 0.0376077 0.034 0.04
   vertex 0.0492543 0.0519343 0.04
  endloop
 endfacet
 facet normal -0 0 1
  outer loop
   vertex 0.0376077 0.034 0.04
   vertex 0.0382918 0.0329466 0.04
   vertex 0.0492543 0.0519343 0.04
  endloop
 endfacet
 facet normal -0 0 1
  outer loop
   vertex 0.0382918 0.0329466 0.04
   vertex 0.0390823 0.0319704 0.04
   vertex 0.0492543 0.0519343 0.04
  endloop
 endfacet
 facet normal -0 0 1
  outer loop
   vertex 0.0390823 0.0319704 0.04
   vertex 0.0399704 0.0310823 0.04
   vertex 0.0492543 0.0519343 0.04
  endloop
 endfacet
 facet normal -0 0 1
  outer loop
   vertex 0.0399704 0.0310823 0.04
   vertex 0.0409466 0.0302918 0.04
   vertex 0.0492543 0.0519343 0.04
  endloop
 endfacet
 facet normal -0 0 1
  outer loop
   vertex 0.0409466 0.0302918 0.04
   vertex 0.042 0.0296077 0.04
   vertex 0.0492543 0.0519343 0.04
  endloop
 endfacet
 facet normal -0 0 1
  outer loop
   vertex 0.042 0.0296077 0.04
   vertex 0.0431192 0.0290375 0.04
   vertex 0.0492543 0.0519343 0.04
  endloop
 endfacet
 facet normal -0 0 1
  outer loop
   vertex 0.0431192 0.0290375 0.04
   vertex 0.0442918 0.0285873 0.04
   vertex 0.0492543 0.0519343 0.04
  endloop
 endfacet
 facet normal -0 0 1
  outer loop
   vertex 0.0442918 0.0285873 0.04
   vertex 0.0455051 0.0282622 0.04
   vertex 0.0492543 0.0519343 0.04
  endloop
 endfacet
 facet normal -0 0 1
  outer loop
   vertex 0.0455051 0.0282622 0.04
   vertex 0.0467457 0.0280657 0.04
   vertex 0.0492543 0.0519343 0.04
  endloop
 endfacet
 facet normal -0 0 1
  outer loop
   vertex 0.0467457 0.0280657 0.04
   vertex 0.048 0.028 0.04
   vertex 0.0492543 0.0519343 0.04
  endloop
 endfacet
 facet normal 0 0 1
  outer loop
   vertex 0.048 0.028 0.04
   vertex 0.0492543 0.0280657 0.04
   vertex 0.0492543 0.0519343 0.04
  endloop
 endfacet
 facet normal 0 0 1
  outer loop
   vertex 0.0492543 0.0280657 0.04
   vertex 0.0504949 0.0282622 0.04
   vertex 0.0492543 0.0519343 0.04
  endloop
 endfacet
 facet normal 0 -0 1
  outer loop
   vertex 0.0504949 0.0282622 0.04
   vertex 0.0517082 0.0285873 0.04
   vertex 0.0492543 0.0519343 0.04
  endloop
 endfacet
 facet normal 0 -0 1
  outer loop
   vertex 0.0517082 0.0285873 0.04
   vertex 0.0528808 0.0290375 0.04
   vertex 0.0492543 0.0519343 0.04
  endloop
 endfacet
 facet normal 0 -0 1
  outer loop
   vertex 0.0528808 0.0290375 0.04
   vertex 0.054 0.0296077 0.04
   vertex 0.0492543 0.0519343 0.04
  endloop
 endfacet
 facet normal 0 -0 1
  outer loop
   vertex 0.054 0.0296077 0.04
   vertex 0.0550534 0.0302918 0.04
   vertex 0.0492543 0.0519343 0.04
  endloop
 endfacet
 facet normal 0 -0 1
  outer loop
   vertex 0.0550534 0.0302918 0.04
   vertex 0.0560296 0.0310823 0.04
   vertex 0.0492543 0.0519343 0.04
  endloop
 endfacet
 facet normal 0 0 1
  outer loop
   vertex 0.0492543 0.0519343 0.04
   vertex 0.0560296 0.0310823 0.04
   vertex 0.0504949 0.0517378 0.04
  endloop
 endfacet
 facet normal 0 0 1
  outer loop
   vertex 0.0504949 0.0517378 0.04
   vertex 0.0560296 0.0310823 0.04
   vertex 0.0517082 0.0514127 0.04
  endloop
 endfacet
 facet normal 0 0 1
  outer loop
   vertex 0.0517082 0.0514127 0.04
   vertex 0.0560296 0.0310823 0.04
   vertex 0.0528808 0.0509625 0.04
  endloop
 endfacet
 facet normal 0 0 1
  outer loop
   vertex 0.0528808 0.0509625 0.04
   vertex 0.0560296 0.0310823 0.04
   vertex 0.054 0.0503923 0.04
  endloop
 endfacet
 facet normal 0 0 1
  outer loop
   vertex 0.054 0.0503923 0.04
   vertex 0.0560296 0.0310823 0.04
   vertex 0.0550534 0.0497082 0.04
  endloop
 endfacet
 facet normal 0 0 1
  outer loop
   vertex 0.0550534 0.0497082 0.04
   vertex 0.0560296 0.0310823 0.04
   vertex 0.0560296 0.0489177 0.04
  endloop
 endfacet
 facet normal 0 0 1
  outer loop
   vertex 0.0560296 0.0489177 0.04
   vertex 0.0560296 0.0310823 0.04
   vertex 0.0569177 0.0480296 0.04
  endloop
 endfacet
 facet normal 0 0 1
  outer loop
   vertex 0.0569177 0.0480296 0.04
   vertex 0.0560296 0.0310823 0.04
   vertex 0.0577082 0.0470534 0.04
  endloop
 endfacet
 facet normal 0 0 1
  outer loop
   vertex 0.0577082 0.0470534 0.04
   vertex 0.0560296 0.0310823 0.04
   vertex 0.0583923 0.046 0.04
  endloop
 endfacet
 facet normal 0 0 1
  outer loop
   vertex 0.0583923 0.046 0.04
   vertex 0.0560296 0.0310823 0.04
   vertex 0.0589625 0.0448808 0.04
  endloop
 endfacet
 facet normal 0 0 1
  outer loop
   vertex 0.0560296 0.0310823 0.04
   vertex 0.0569177 0.0319704 0.04
   vertex 0.0589625 0.0448808 0.04
  endloop
 endfacet
 facet normal 0 0 1
  outer loop
   vertex 0.0569177 0.0319704 0.04
   vertex 0.0577082 0.0329466 0.04
   vertex 0.0589625 0.0448808 0.04
  endloop
 endfacet
 facet normal 0 0 1
  outer loop
   vertex 0.0577082 0.0329466 0.04
   vertex 0.0583923 0.034 0.04
   vertex 0.0589625 0.0448808 0.04
  endloop
 endfacet
 facet normal 0 0 1
  outer loop
   vertex 0.0583923 0.034 0.04
   vertex 0.0589625 0.0351192 0.04
   vertex 0.0589625 0.0448808 0.04
  endloop
 endfacet
 facet normal 0 0 1
  outer loop
   vertex 0.0589625 0.0448808 0.04
   vertex 0.0589625 0.0351192 0.04
   vertex 0.0594127 0.0437082 0.04
  endloop
 endfacet
 facet normal 0 0 1
  outer loop
   vertex 0.0594127 0.0437082 0.04
   vertex 0.0589625 0.0351192 0.04
   vertex 0.0597378 0.0424949 0.04
  endloop
 endfacet
 facet normal 0 0 1
  outer loop
   vertex 0.0597378 0.0424949 0.04
   vertex 0.0589625 0.0351192 0.04
   vertex 0.0599343 0.0412543 0.04
  endloop
 endfacet
 facet normal 0 0 1
  outer loop
   vertex 0.0599343 0.0412543 0.04
   vertex 0.0589625 0.0351192 0.04
   vertex 0.06 0.04 0.04
  endloop
 endfacet
 facet normal 0 0 1
  outer loop
   vertex 0.06 0.04 0.04
   vertex 0.0589625 0.0351192 0.04
   vertex 0.0599343 0.0387457 0.04
  endloop
 endfacet
 facet normal 0 0 1
  outer loop
   vertex 0.0599343 0.0387457 0.04
   vertex 0.0589625 0.0351192 0.04
   vertex 0.0597378 0.0375051 0.04
  endloop
 endfacet
 facet normal 0 -0 1
  outer loop
   vertex 0.0594127 0.0362918 0.04
   vertex 0.0597378 0.0375051 0.04
   vertex 0.0589625 0.0351192 0.04
  endloop
 endfacet
 facet normal 0 -0 -1
  outer loop
   vertex 0.0455051 0.0517378 -0.04
   vertex 0.0467457 0.0519343 -0.04
   vertex 0.0442918 0.0514127 -0.04
  endloop
 endfacet
 facet normal 0 -0 -1
  outer loop
   vertex 0.0442918 0.0514127 -0.04
   vertex 0.0467457 0.0519343 -0.04
   vertex 0.0431192 0.0509625 -0.04
  endloop
 endfacet
 facet normal 0 -0 -1
  outer loop
   vertex 0.0467457 0.0519343 -0.04
   vertex 0.048 0.052 -0.04
   vertex 0.0431192 0.0509625 -0.04
  endloop
 endfacet
 facet normal 0 -0 -1
  outer loop
   vertex 0.048 0.052 -0.04
   vertex 0.0492543 0.0519343 -0.04
   vertex 0.0431192 0.0509625 -0.04
  endloop
 endfacet
 facet normal 0 -0 -1
  outer loop
   vertex 0.0431192 0.0509625 -0.04
   vertex 0.0492543 0.0519343 -0.04
   vertex 0.042 0.0503923 -0.04
  endloop
 endfacet
 facet normal 0 -0 -1
  outer loop
   vertex 0.042 0.0503923 -0.04
   vertex 0.0492543 0.0519343 -0.04
   vertex 0.0409466 0.0497082 -0.04
  endloop
 endfacet
 facet normal 0 -0 -1
  outer loop
   vertex 0.0409466 0.0497082 -0.04
   vertex 0.0492543 0.0519343 -0.04
   vertex 0.0399704 0.0489177 -0.04
  endloop
 endfacet
 facet normal 0 -0 -1
  outer loop
   vertex 0.0399704 0.0489177 -0.04
   vertex 0.0492543 0.0519343 -0.04
   vertex 0.0390823 0.0480296 -0.04
  endloop
 endfacet
 facet normal 0 -0 -1
  outer loop
   vertex 0.0390823 0.0480296 -0.04
   vertex 0.0492543 0.0519343 -0.04
   vertex 0.0382918 0.0470534 -0.04
  endloop
 endfacet
 facet normal 0 -0 -1
  outer loop
   vertex 0.0382918 0.0470534 -0.04
   vertex 0.0492543 0.0519343 -0.04
   vertex 0.0376077 0.046 -0.04
  endloop
 endfacet
 facet normal 0 -0 -1
  outer loop
   vertex 0.0376077 0.046 -0.04
   vertex 0.0492543 0.0519343 -0.04
   vertex 0.0370375 0.0448808 -0.04
  endloop
 endfacet
 facet normal 0 -0 -1
  outer loop
   vertex 0.0370375 0.0448808 -0.04
   vertex 0.0492543 0.0519343 -0.04
   vertex 0.0365873 0.0437082 -0.04
  endloop
 endfacet
 facet normal 0 -0 -1
  outer loop
   vertex 0.0365873 0.0437082 -0.04
   vertex 0.0492543 0.0519343 -0.04
   vertex 0.0362622 0.0424949 -0.04
  endloop
 endfacet
 facet normal 0 -0 -1
  outer loop
   vertex 0.0362622 0.0424949 -0.04
   vertex 0.0492543 0.0519343 -0.04
   vertex 0.0360657 0.0412543 -0.04
  endloop
 endfacet
 facet normal 0 -0 -1
  outer loop
   vertex 0.0360657 0.0412543 -0.04
   vertex 0.0492543 0.0519343 -0.04
   vertex 0.036 0.04 -0.04
  endloop
 endfacet
 facet normal 0 0 -1
  outer loop
   vertex 0.036 0.04 -0.04
   vertex 0.0492543 0.0519343 -0.04
   vertex 0.0360657 0.0387457 -0.04
  endloop
 endfacet
 facet normal 0 0 -1
  outer loop
   vertex 0.0360657 0.0387457 -0.04
   vertex 0.0492543 0.0519343 -0.04
   vertex 0.0362622 0.0375051 -0.04
  endloop
 endfacet
 facet normal 0 0 -1
  outer loop
   vertex 0.0362622 0.0375051 -0.04
   vertex 0.0492543 0.0519343 -0.04
   vertex 0.0365873 0.0362918 -0.04
  endloop
 endfacet
 facet normal 0 0 -1
  outer loop
   vertex 0.0365873 0.0362918 -0.04
   vertex 0.0492543 0.0519343 -0.04
   vertex 0.0370375 0.0351192 -0.04
  endloop
 endfacet
 facet normal 0 0 -1
  outer loop
   vertex 0.0370375 0.0351192 -0.04
   vertex 0.0492543 0.0519343 -0.04
   vertex 0.0376077 0.034 -0.04
  endloop
 endfacet
 facet normal 0 0 -1
  outer loop
   vertex 0.0376077 0.034 -0.04
   vertex 0.0492543 0.0519343 -0.04
   vertex 0.0382918 0.0329466 -0.04
  endloop
 endfacet
 facet normal 0 0 -1
  outer loop
   vertex 0.0382918 0.0329466 -0.04
   vertex 0.0492543 0.0519343 -0.04
   vertex 0.0390823 0.0319704 -0.04
  endloop
 endfacet
 facet normal 0 0 -1
  outer loop
   vertex 0.0390823 0.0319704 -0.04
   vertex 0.0492543 0.0519343 -0.04
   vertex 0.0399704 0.0310823 -0.04
  endloop
 endfacet
 facet normal 0 0 -1
  outer loop
   vertex 0.0399704 0.0310823 -0.04
   vertex 0.0492543 0.0519343 -0.04
   vertex 0.0409466 0.0302918 -0.04
  endloop
 endfacet
 facet normal 0 0 -1
  outer loop
   vertex 0.0409466 0.0302918 -0.04
   vertex 0.0492543 0.0519343 -0.04
   vertex 0.042 0.0296077 -0.04
  endloop
 endfacet
 facet normal 0 0 -1
  outer loop
   vertex 0.042 0.0296077 -0.04
   vertex 0.0492543 0.0519343 -0.04
   vertex 0.0431192 0.0290375 -0.04
  endloop
 endfacet
 facet normal 0 0 -1
  outer loop
   vertex 0.0431192 0.0290375 -0.04
   vertex 0.0492543 0.0519343 -0.04
   vertex 0.0442918 0.0285873 -0.04
  endloop
 endfacet
 facet normal 0 0 -1
  outer loop
   vertex 0.0442918 0.0285873 -0.04
   vertex 0.0492543 0.0519343 -0.04
   vertex 0.0455051 0.0282622 -0.04
  endloop
 endfacet
 facet normal 0 0 -1
  outer loop
   vertex 0.0455051 0.0282622 -0.04
   vertex 0.0492543 0.0519343 -0.04
   vertex 0.0467457 0.0280657 -0.04
  endloop
 endfacet
 facet normal 0 0 -1
  outer loop
   vertex 0.0467457 0.0280657 -0.04
   vertex 0.0492543 0.0519343 -0.04
   vertex 0.048 0.028 -0.04
  endloop
 endfacet
 facet normal 0 0 -1
  outer loop
   vertex 0.048 0.028 -0.04
   vertex 0.0492543 0.0519343 -0.04
   vertex 0.0492543 0.0280657 -0.04
  endloop
 endfacet
 facet normal 0 0 -1
  outer loop
   vertex 0.0492543 0.0280657 -0.04
   vertex 0.0492543 0.0519343 -0.04
   vertex 0.0504949 0.0282622 -0.04
  endloop
 endfacet
 facet normal 0 0 -1
  outer loop
   vertex 0.0504949 0.0282622 -0.04
   vertex 0.0492543 0.0519343 -0.04
   vertex 0.0517082 0.0285873 -0.04
  endloop
 endfacet
 facet normal 0 0 -1
  outer loop
   vertex 0.0517082 0.0285873 -0.04
   vertex 0.0492543 0.0519343 -0.04
   vertex 0.0528808 0.0290375 -0.04
  endloop
 endfacet
 facet normal 0 0 -1
  outer loop
   vertex 0.0528808 0.0290375 -0.04
   vertex 0.0492543 0.0519343 -0.04
   vertex 0.054 0.0296077 -0.04
  endloop
 endfacet
 facet normal 0 0 -1
  outer loop
   vertex 0.054 0.0296077 -0.04
   vertex 0.0492543 0.0519343 -0.04
   vertex 0.0550534 0.0302918 -0.04
  endloop
 endfacet
 facet normal 0 0 -1
  outer loop
   vertex 0.0550534 0.0302918 -0.04
   vertex 0.0492543 0.0519343 -0.04
   vertex 0.0560296 0.0310823 -0.04
  endloop
 endfacet
 facet normal 0 0 -1
  outer loop
   vertex 0.0492543 0.0519343 -0.04
   vertex 0.0504949 0.0517378 -0.04
   vertex 0.0560296 0.0310823 -0.04
  endloop
 endfacet
 facet normal 0 0 -1
  outer loop
   vertex 0.0504949 0.0517378 -0.04
   vertex 0.0517082 0.0514127 -0.04
   vertex 0.0560296 0.0310823 -0.04
  endloop
 endfacet
 facet normal 0 0 -1
  outer loop
   vertex 0.0517082 0.0514127 -0.04
   vertex 0.0528808 0.0509625 -0.04
   vertex 0.0560296 0.0310823 -0.04
  endloop
 endfacet
 facet normal 0 0 -1
  outer loop
   vertex 0.0528808 0.0509625 -0.04
   vertex 0.054 0.0503923 -0.04
   vertex 0.0560296 0.0310823 -0.04
  endloop
 endfacet
 facet normal 0 0 -1
  outer loop
   vertex 0.054 0.0503923 -0.04
   vertex 0.0550534 0.0497082 -0.04
   vertex 0.0560296 0.0310823 -0.04
  endloop
 endfacet
 facet normal 0 0 -1
  outer loop
   vertex 0.0550534 0.0497082 -0.04
   vertex 0.0560296 0.0489177 -0.04
   vertex 0.0560296 0.0310823 -0.04
  endloop
 endfacet
 facet normal 0 0 -1
  outer loop
   vertex 0.0560296 0.0310823 -0.04
   vertex 0.0560296 0.0489177 -0.04
   vertex 0.0569177 0.0319704 -0.04
  endloop
 endfacet
 facet normal 0 0 -1
  outer loop
   vertex 0.0569177 0.0319704 -0.04
   vertex 0.0560296 0.0489177 -0.04
   vertex 0.0577082 0.0329466 -0.04
  endloop
 endfacet
 facet normal 0 0 -1
  outer loop
   vertex 0.0577082 0.0329466 -0.04
   vertex 0.0560296 0.0489177 -0.04
   vertex 0.0583923 0.034 -0.04
  endloop
 endfacet
 facet normal 0 0 -1
  outer loop
   vertex 0.0583923 0.034 -0.04
   vertex 0.0560296 0.0489177 -0.04
   vertex 0.0589625 0.0351192 -0.04
  endloop
 endfacet
 facet normal 0 0 -1
  outer loop
   vertex 0.0560296 0.0489177 -0.04
   vertex 0.0569177 0.0480296 -0.04
   vertex 0.0589625 0.0351192 -0.04
  endloop
 endfacet
 facet normal 0 0 -1
  outer loop
   vertex 0.0569177 0.0480296 -0.04
   vertex 0.0577082 0.0470534 -0.04
   vertex 0.0589625 0.0351192 -0.04
  endloop
 endfacet
 facet normal 0 0 -1
  outer loop
   vertex 0.0577082 0.0470534 -0.04
   vertex 0.0583923 0.046 -0.04
   vertex 0.0589625 0.0351192 -0.04
  endloop
 endfacet
 facet normal 0 0 -1
  outer loop
   vertex 0.0583923 0.046 -0.04
   vertex 0.0589625 0.0448808 -0.04
   vertex 0.0589625 0.0351192 -0.04
  endloop
 endfacet
 facet normal 0 0 -1
  outer loop
   vertex 0.0589625 0.0351192 -0.04
   vertex 0.0589625 0.0448808 -0.04
   vertex 0.0594127 0.0362918 -0.04
  endloop
 endfacet
 facet normal 0 0 -1
  outer loop
   vertex 0.0594127 0.0362918 -0.04
   vertex 0.0589625 0.0448808 -0.04
   vertex 0.0597378 0.0375051 -0.04
  endloop
 endfacet
 facet normal 0 0 -1
  outer loop
   vertex 0.0597378 0.0375051 -0.04
   vertex 0.0589625 0.0448808 -0.04
   vertex 0.0599343 0.0387457 -0.04
  endloop
 endfacet
 facet normal 0 0 -1
  outer loop
   vertex 0.0599343 0.0387457 -0.04
   vertex 0.0589625 0.0448808 -0.04
   vertex 0.06 0.04 -0.04
  endloop
 endfacet
 facet normal 0 0 -1
  outer loop
   vertex 0.06 0.04 -0.04
   vertex 0.0589625 0.0448808 -0.04
   vertex 0.0599343 0.0412543 -0.04
  endloop
 endfacet
 facet normal 0 0 -1
  outer loop
   vertex 0.0599343 0.0412543 -0.04
   vertex 0.0589625 0.0448808 -0.04
   vertex 0.0597378 0.0424949 -0.04
  endloop
 endfacet
 facet normal -0 -0 -1
  outer loop
   vertex 0.0594127 0.0437082 -0.04
   vertex 0.0597378 0.0424949 -0.04
   vertex 0.0589625 0.0448808 -0.04
  endloop
 endfacet
endsolid zone0
